HIERARCHY
ROOT Hips
{
    OFFSET 0.0 0.0 0.0
    CHANNELS 6 Xposition Yposition Zposition Zrotation Xrotation Yrotation
    JOINT LeftUpLeg
    {
        OFFSET 11.178784234960261 0.0 0.0
        CHANNELS 3 Zrotation Xrotation Yrotation
        JOINT LeftLeg
        {
            OFFSET 0.0 0.0 -65.4749401916972
            CHANNELS 3 Zrotation Xrotation Yrotation
            JOINT LeftFoot
            {
                OFFSET 0.0 0.0 -50.50175332095749
                CHANNELS 3 Zrotation Xrotation Yrotation
                JOINT LeftToeBase
                {
                    OFFSET 0.0 -11.214708437022145 0.0
                    CHANNELS 3 Zrotation Xrotation Yrotation
                    End Site
                    {
                        OFFSET 0 0 0
                    }
                }
            }
        }
    }
    JOINT RightUpLeg
    {
        OFFSET -11.178784234960261 0.0 0.0
        CHANNELS 3 Zrotation Xrotation Yrotation
        JOINT RightLeg
        {
            OFFSET 0.0 0.0 -65.4749401916972
            CHANNELS 3 Zrotation Xrotation Yrotation
            JOINT RightFoot
            {
                OFFSET 0.0 0.0 -50.50175332095749
                CHANNELS 3 Zrotation Xrotation Yrotation
                JOINT RightToeBase
                {
                    OFFSET 0.0 -11.214708437022145 0.0
                    CHANNELS 3 Zrotation Xrotation Yrotation
                    End Site
                    {
                        OFFSET 0 0 0
                    }
                }
            }
        }
    }
    JOINT Spine
    {
        OFFSET 0.0 0.0 12.283524063931589
        CHANNELS 3 Zrotation Xrotation Yrotation
        JOINT Spine1
        {
            OFFSET 0.0 0.0 11.529863504998941
            CHANNELS 3 Zrotation Xrotation Yrotation
            JOINT Spine2
            {
                OFFSET 0.0 0.0 11.529863504998943
                CHANNELS 3 Zrotation Xrotation Yrotation
                JOINT Spine3
                {
                    OFFSET 0.0 0.0 11.52986350499894
                    CHANNELS 3 Zrotation Xrotation Yrotation
                    JOINT Spine4
                    {
                        OFFSET 0.0 0.0 11.529863504998946
                        CHANNELS 3 Zrotation Xrotation Yrotation
                        JOINT RightShoulder
                        {
                            OFFSET -22.4214784059914 0.0 0.0
                            CHANNELS 3 Zrotation Xrotation Yrotation
                            JOINT RightArm
                            {
                                OFFSET -37.52707421658444 0.0 0.0
                                CHANNELS 3 Zrotation Xrotation Yrotation
                                JOINT RightForeArm
                                {
                                    OFFSET -33.80784766288853 0.0 0.0
                                    CHANNELS 3 Zrotation Xrotation Yrotation
                                    JOINT RightHand
                                    {
                                        OFFSET -11.366812759448955 0.0 0.0
                                        CHANNELS 3 Zrotation Xrotation Yrotation
                                        End Site
                                        {
                                            OFFSET 0 0 0
                                        }
                                    }
                                }
                            }
                        }
                        JOINT LeftShoulder
                        {
                            OFFSET 22.4214784059914 0.0 0.0
                            CHANNELS 3 Zrotation Xrotation Yrotation
                            JOINT LeftArm
                            {
                                OFFSET 37.52707421658444 0.0 0.0
                                CHANNELS 3 Zrotation Xrotation Yrotation
                                JOINT LeftForeArm
                                {
                                    OFFSET 33.80784766288853 0.0 0.0
                                    CHANNELS 3 Zrotation Xrotation Yrotation
                                    JOINT LeftHand
                                    {
                                        OFFSET 11.366812759448955 0.0 0.0
                                        CHANNELS 3 Zrotation Xrotation Yrotation
                                        End Site
                                        {
                                            OFFSET 0 0 0
                                        }
                                    }
                                }
                            }
                        }
                        JOINT Neck
                        {
                            OFFSET 0.0 0.0 11.529863502846583
                            CHANNELS 3 Zrotation Xrotation Yrotation
                            JOINT Head
                            {
                                OFFSET 0.0 0.0 24.739243296033287
                                CHANNELS 3 Zrotation Xrotation Yrotation
                                End Site
                                {
                                    OFFSET 0 0 0
                                }
                            }
                        }
                    }
                }
            }
        }
    }
}
MOTION
Frames: 7
Frame Time: 0.03333333333333333
64.04651849269867 18.97894350886345 562.7110456466675 18.47736105025641 -57.27719625346064 18.76159642293811 8.859954116079267 -32.50834703058675 3.168930269138665 16.580950495539334 -14.77892039265476 16.14459616177169 -122.67750072139343 9.54166404439055e-15 58.607347221811644 0.0 0.0 0.0 -13.887486664023491 -37.36040795473268 -2.9608778223332184 -3.8671139146584688 -3.4014441793035246 -12.35865764183393 142.73704797672744 4.770832022195275e-15 -43.062078025612706 0.0 0.0 -7.951386703658792e-16 0.7845296696449897 -33.016957507159596 1.7132774174414034 0.0 0.0 0.0 0.0 0.0 0.0 0.0 0.0 0.0 0.0 0.0 0.0 -159.97074423664364 0.4812453477760895 170.80168237659237 56.377056148162566 2.042492146867646e-14 -7.33794823545772e-15 -180.0 70.37795691829103 180.0 0.0 0.0 0.0 150.66984173789848 -4.75646518803602 -175.35109884628093 -34.79027225089627 1.2140974841740799e-14 2.9703724311601767e-15 -180.0 18.431997057053227 180.0 0.0 -6.361109362927035e-15 0.0 -4.08936517876107 1.5679699443973958e-15 -7.396662164443202e-16 7.951386703658792e-16 0.0 0.0
64.05443322658539 19.1594742000103 563.0950590133667 17.70131151395312 -56.95126151862198 17.959148026254613 9.244447047641643 -32.86715024654656 3.362480791175283 16.737461885130802 -14.857471585867358 16.061266407486958 -122.15557923620113 1.2722218725854067e-14 58.72480812000423 0.0 0.0 0.0 -15.068693607279918 -38.190012600784975 -3.7506541808129463 -2.560950474291984 -2.250446158137105 -12.509771252174902 149.29582557024995 -7.951386703658792e-15 -49.6565363453989 0.0 0.0 1.2424041724466862e-17 0.8165350241083909 -33.17495754224264 1.6738639653912648 -6.896728590703373e-34 9.93923337957349e-17 7.951386703658792e-16 -6.896728590703373e-34 9.93923337957349e-17 7.951386703658792e-16 -6.896728590703373e-34 9.93923337957349e-17 7.951386703658792e-16 -6.896728590703373e-34 9.93923337957349e-17 7.951386703658792e-16 -159.0808206407265 0.4036658300679245 170.67939040590804 57.18134044085726 -5.7459957932185255e-15 8.564977441842888e-15 -180.0 72.35873587630368 -180.0 0.0 0.0 0.0 150.81853515959824 -4.606128309264754 -175.40817749716547 -35.318648473996845 2.5660121251754005e-15 -8.520096397936393e-16 180.0 19.66068181660224 180.0 0.0 -6.261717029131298e-15 0.0 -3.848909493304041 8.416881129144828e-15 1.078400569548733e-15 7.951386703658792e-16 0.0 0.0
64.07918071746826 19.28748074769974 563.4704063415527 17.28429996303976 -56.44129603459438 17.482737757454306 9.656979587943376 -33.309115946756265 3.7000966998158966 16.8631182560122 -14.940305673877905 16.06568579105322 -121.91744811721294 -6.3611093629270335e-15 58.98113932648654 0.0 0.0 0.0 -15.739090443389614 -38.891748794175754 -4.182528139757502 -1.8660715424492558 -1.6388600454809383 -12.552314859246996 148.3174085974571 1.2722218725854067e-14 -48.934415805125774 -6.3611093629270335e-15 8.276074308844047e-32 -1.4908850069360234e-15 0.91902672124359 -33.432360705221996 1.7667461690438426 -7.951386703658792e-16 0.0 0.0 -7.951386703658792e-16 0.0 0.0 -7.951386703658792e-16 0.0 0.0 -7.951386703658792e-16 0.0 0.0 -158.33205872530317 0.21778674513930155 170.58684375093333 58.30584017511134 1.7894170794124334e-14 -1.3623327628728688e-14 -180.0 74.03626885243459 -180.0 -3.975693351829396e-16 0.0 0.0 150.7292783028507 -4.325721552575692 -175.44846075197626 -34.82364412218054 4.825937240754445e-17 -8.181881703835e-16 -180.0 18.770280220475733 -180.0 -1.5902773407317584e-15 0.0 0.0 -3.792362227564886 2.9275172752467147e-15 1.6880690267887248e-15 0.0 0.0 0.0
64.11243524551392 19.360496073961258 563.8045732498169 17.186323484600653 -55.869479507877024 17.29837294078349 9.987901700961116 -33.74740414848142 4.08040581367879 16.932480208164947 -15.002529737170999 16.102333481502743 -121.90155579195286 -6.3611093629270335e-15 59.295306190809825 0.0 0.0 0.0 -15.966858602453549 -39.4791948508771 -4.260645244252381 -1.5417117494407362 -1.3524653992854547 -12.544171329922545 147.01291468538687 -4.770832022195275e-15 -47.93026501665025 0.0 0.0 0.0 1.0689621494374564 -33.747023432304964 1.963645892425852 0.0 0.0 0.0 0.0 0.0 0.0 0.0 0.0 0.0 0.0 0.0 0.0 -157.92106293227297 0.09690248050272704 170.48865978692305 59.226538214672054 1.4298294817619995e-14 1.0190949266712725e-15 -179.99999999999997 80.00190390052506 179.99999999999997 9.93923337957349e-17 0.0 0.0 150.42821886365567 -4.0595411726366235 -175.47329629729703 -33.99473966276159 6.3372830142916516e-15 -3.0515659540182574e-15 180.0 18.043306290283045 180.0 0.0 0.0 -1.5902773407317584e-15 -3.8907855273015537 -1.159520800033834e-14 -1.1894465837859948e-15 -7.951386703658792e-16 0.0 0.0
64.14944536685942 19.3839459836483 564.1150033950805 17.1069765707822 -55.2317968563865 17.124211050177372 10.2485239016707 -34.216964386484946 4.450263420553147 17.03067204902752 -15.105437318802277 16.169555400562185 -121.95435998916628 1.2722218725854067e-14 59.63127967059966 0.0 0.0 0.0 -16.032027235891373 -40.063843788975696 -4.23726024595983 -1.3902419818428364 -1.219144966060477 -12.497625716170862 144.14732292851548 -4.770832022195275e-15 -45.97433169539183 0.0 0.0 1.5902773407317584e-15 1.2210073288004015 -34.10252514181629 2.1644475092512354 0.0 9.93923337957349e-17 0.0 0.0 9.93923337957349e-17 0.0 0.0 9.93923337957349e-17 0.0 0.0 9.93923337957349e-17 0.0 -157.62018451525205 -0.030008319274872415 170.39140376026478 59.963393989614225 2.450316528637006e-14 -1.2847852703805666e-15 -8.86232603867454e-15 77.0791393041839 1.1125690641563456e-14 7.951386703658791e-16 3.9756933518293955e-16 -2.758691436281349e-33 149.84797417324532 -2.80574822978712 -175.43711833345338 -32.90106474719368 5.376023688093609e-15 -5.0452150381912166e-15 180.0 15.185990495959702 -180.0 8.827812596100317e-32 -6.3611093629270335e-15 1.5902773407317584e-15 -4.022342656976076 -1.5178715046640844e-15 7.423272218817212e-16 0.0 0.0 0.0
64.18591432571411 19.374589079618453 564.4036159515381 17.101193334386497 -54.55091889017454 17.0049054959752 10.482066169471695 -34.69898995793769 4.8420123380324505 17.123526132325733 -15.21234412176154 16.26199420922289 -122.12321047247931 3.1805546814635168e-15 59.95672156829564 0.0 0.0 0.0 -15.911349393384333 -40.63325873361513 -4.061125867731294 -1.3700488600610639 -1.2007976447379023 -12.431430747386798 134.34535806388675 4.770832022195275e-15 -38.01329104071817 0.0 0.0 0.0 1.404934582183956 -34.46665082728716 2.386391088255418 -7.951386703658791e-16 0.0 0.0 -7.951386703658791e-16 0.0 0.0 -7.951386703658791e-16 0.0 0.0 -7.951386703658791e-16 0.0 0.0 -157.3335271623975 0.09186575123231004 170.26787462402135 59.80873628303448 -1.1717639434178503e-14 6.7391302901581424e-15 8.547301377779859e-15 34.773338381951376 -6.00921025916917e-15 -1.590277340731758e-15 0.0 0.0 148.93108547674046 -0.9197925230713814 -175.36547977913955 -32.01537976990324 -2.563562457170394e-14 -3.632157066659941e-15 -180.0 12.031198637233807 180.0 0.0 0.0 0.0 -4.247883403363003 9.246412415502285e-15 -1.2484510949373777e-15 0.0 0.0 -7.951386703658792e-16
64.21981136798858 19.3371809899807 564.6819036483765 17.09946452474131 -53.88371373810411 16.885018313784748 10.668967958869123 -35.142859147445655 5.207332798943205 17.213935221247624 -15.324984070711222 16.38302847405302 -122.22290719012096 9.54166404439055e-15 60.27692185155206 0.0 0.0 0.0 -15.655128655988388 -41.13692783306967 -3.78476339010743 -1.4634918961344392 -1.2823204045689334 -12.367497079107276 117.33628543229572 0.0 -30.679675501387877 0.0 0.0 -6.3611093629270335e-15 1.6013329226328743 -34.86059316282914 2.5894947016512453 -7.951386703658792e-16 0.0 0.0 -7.951386703658792e-16 0.0 0.0 -7.951386703658792e-16 0.0 0.0 -7.951386703658792e-16 0.0 0.0 -157.22280829144958 0.12273068704484473 170.2111032147102 58.93649943637046 1.910780990673181e-15 2.573500624390699e-15 -1.3431999609107656e-15 -9.366217298444942 3.0811760483904974e-15 0.0 0.0 7.951386703658792e-16 148.21924890409773 1.2308758607344006 -175.31758216809513 -30.92805286477631 1.1518877047280285e-14 2.991610803557732e-16 180.0 8.82524264921971 -180.0 0.0 0.0 0.0 -4.449248753234856 2.0291619680704973e-14 -7.479124783956187e-18 0.0 0.0 0.0
